<svg xmlns="http://www.w3.org/2000/svg" width="960" height="540" viewBox="0 0 960 540" role="img" aria-labelledby="title"><title id="title">UNDERSTORY: layered trees sway while fireflies drift through a forest</title><style>@media(prefers-reduced-motion:reduce){svg *{animation:none!important}} text{font-family:Arial,Helvetica,sans-serif}.crown{transform-origin:0 130px;animation:sway 7s ease-in-out infinite}@keyframes sway{0%,100%{transform:rotate(-1.5deg)}50%{transform:rotate(1.5deg)}}.mote{animation:float 8s ease-in-out infinite}@keyframes float{0%,100%{transform:translate(0,0);opacity:.15}50%{transform:translate(16px,-35px);opacity:.9}}.rays{animation:light 10s ease-in-out infinite}@keyframes light{50%{opacity:.45;transform:translateX(12px)}}</style><defs><linearGradient id="sky" x2="0" y2="1"><stop stop-color="#18342f"/><stop offset="1" stop-color="#698778"/></linearGradient><linearGradient id="ray" x2="0" y2="1"><stop stop-color="#f0ebc3" stop-opacity=".23"/><stop offset="1" stop-color="#f0ebc3" stop-opacity="0"/></linearGradient></defs>
<rect width="960" height="540" rx="18" fill="url(#sky)"/><circle cx="705" cy="80" r="47" fill="#dce4c5" opacity=".18"/>
<g class="rays"><path d="M680 0L410 540H520L735 0ZM744 0L645 540H715L779 0Z" fill="url(#ray)"/></g>
<g transform="translate(-30 330) scale(0.65)"><path d="M-8 0H8V155H-8Z" fill="#23372c"/><g class="crown" style="animation-delay:0.0s"><polygon points="0,-220 -45,-145 -25,-145 -62,-90 -37,-90 -83,-25 -55,-25 -98,35 98,35 55,-25 83,-25 37,-90 62,-90 25,-145 45,-145" fill="#263f39"/><path d="M0-207V32L55-20M0-90L36-130M0-29L-51-64" fill="none" stroke="#82a782" opacity=".15" stroke-width="4"/></g></g><g transform="translate(137 330) scale(0.65)"><path d="M-8 0H8V155H-8Z" fill="#23372c"/><g class="crown" style="animation-delay:-0.8s"><polygon points="0,-220 -45,-145 -25,-145 -62,-90 -37,-90 -83,-25 -55,-25 -98,35 98,35 55,-25 83,-25 37,-90 62,-90 25,-145 45,-145" fill="#263f39"/><path d="M0-207V32L55-20M0-90L36-130M0-29L-51-64" fill="none" stroke="#82a782" opacity=".15" stroke-width="4"/></g></g><g transform="translate(304 330) scale(0.65)"><path d="M-8 0H8V155H-8Z" fill="#23372c"/><g class="crown" style="animation-delay:-1.6s"><polygon points="0,-220 -45,-145 -25,-145 -62,-90 -37,-90 -83,-25 -55,-25 -98,35 98,35 55,-25 83,-25 37,-90 62,-90 25,-145 45,-145" fill="#263f39"/><path d="M0-207V32L55-20M0-90L36-130M0-29L-51-64" fill="none" stroke="#82a782" opacity=".15" stroke-width="4"/></g></g><g transform="translate(471 330) scale(0.65)"><path d="M-8 0H8V155H-8Z" fill="#23372c"/><g class="crown" style="animation-delay:-2.4000000000000004s"><polygon points="0,-220 -45,-145 -25,-145 -62,-90 -37,-90 -83,-25 -55,-25 -98,35 98,35 55,-25 83,-25 37,-90 62,-90 25,-145 45,-145" fill="#263f39"/><path d="M0-207V32L55-20M0-90L36-130M0-29L-51-64" fill="none" stroke="#82a782" opacity=".15" stroke-width="4"/></g></g><g transform="translate(638 330) scale(0.65)"><path d="M-8 0H8V155H-8Z" fill="#23372c"/><g class="crown" style="animation-delay:-3.2s"><polygon points="0,-220 -45,-145 -25,-145 -62,-90 -37,-90 -83,-25 -55,-25 -98,35 98,35 55,-25 83,-25 37,-90 62,-90 25,-145 45,-145" fill="#263f39"/><path d="M0-207V32L55-20M0-90L36-130M0-29L-51-64" fill="none" stroke="#82a782" opacity=".15" stroke-width="4"/></g></g><g transform="translate(805 330) scale(0.65)"><path d="M-8 0H8V155H-8Z" fill="#23372c"/><g class="crown" style="animation-delay:-4.0s"><polygon points="0,-220 -45,-145 -25,-145 -62,-90 -37,-90 -83,-25 -55,-25 -98,35 98,35 55,-25 83,-25 37,-90 62,-90 25,-145 45,-145" fill="#263f39"/><path d="M0-207V32L55-20M0-90L36-130M0-29L-51-64" fill="none" stroke="#82a782" opacity=".15" stroke-width="4"/></g></g><g transform="translate(972 330) scale(0.65)"><path d="M-8 0H8V155H-8Z" fill="#23372c"/><g class="crown" style="animation-delay:-4.800000000000001s"><polygon points="0,-220 -45,-145 -25,-145 -62,-90 -37,-90 -83,-25 -55,-25 -98,35 98,35 55,-25 83,-25 37,-90 62,-90 25,-145 45,-145" fill="#263f39"/><path d="M0-207V32L55-20M0-90L36-130M0-29L-51-64" fill="none" stroke="#82a782" opacity=".15" stroke-width="4"/></g></g><g transform="translate(0 378) scale(0.9)"><path d="M-8 0H8V155H-8Z" fill="#23372c"/><g class="crown" style="animation-delay:-1.0s"><polygon points="0,-220 -45,-145 -25,-145 -62,-90 -37,-90 -83,-25 -55,-25 -98,35 98,35 55,-25 83,-25 37,-90 62,-90 25,-145 45,-145" fill="#315344"/><path d="M0-207V32L55-20M0-90L36-130M0-29L-51-64" fill="none" stroke="#82a782" opacity=".15" stroke-width="4"/></g></g><g transform="translate(167 378) scale(0.9)"><path d="M-8 0H8V155H-8Z" fill="#23372c"/><g class="crown" style="animation-delay:-1.8s"><polygon points="0,-220 -45,-145 -25,-145 -62,-90 -37,-90 -83,-25 -55,-25 -98,35 98,35 55,-25 83,-25 37,-90 62,-90 25,-145 45,-145" fill="#315344"/><path d="M0-207V32L55-20M0-90L36-130M0-29L-51-64" fill="none" stroke="#82a782" opacity=".15" stroke-width="4"/></g></g><g transform="translate(334 378) scale(0.9)"><path d="M-8 0H8V155H-8Z" fill="#23372c"/><g class="crown" style="animation-delay:-2.6s"><polygon points="0,-220 -45,-145 -25,-145 -62,-90 -37,-90 -83,-25 -55,-25 -98,35 98,35 55,-25 83,-25 37,-90 62,-90 25,-145 45,-145" fill="#315344"/><path d="M0-207V32L55-20M0-90L36-130M0-29L-51-64" fill="none" stroke="#82a782" opacity=".15" stroke-width="4"/></g></g><g transform="translate(501 378) scale(0.9)"><path d="M-8 0H8V155H-8Z" fill="#23372c"/><g class="crown" style="animation-delay:-3.4000000000000004s"><polygon points="0,-220 -45,-145 -25,-145 -62,-90 -37,-90 -83,-25 -55,-25 -98,35 98,35 55,-25 83,-25 37,-90 62,-90 25,-145 45,-145" fill="#315344"/><path d="M0-207V32L55-20M0-90L36-130M0-29L-51-64" fill="none" stroke="#82a782" opacity=".15" stroke-width="4"/></g></g><g transform="translate(668 378) scale(0.9)"><path d="M-8 0H8V155H-8Z" fill="#23372c"/><g class="crown" style="animation-delay:-4.2s"><polygon points="0,-220 -45,-145 -25,-145 -62,-90 -37,-90 -83,-25 -55,-25 -98,35 98,35 55,-25 83,-25 37,-90 62,-90 25,-145 45,-145" fill="#315344"/><path d="M0-207V32L55-20M0-90L36-130M0-29L-51-64" fill="none" stroke="#82a782" opacity=".15" stroke-width="4"/></g></g><g transform="translate(835 378) scale(0.9)"><path d="M-8 0H8V155H-8Z" fill="#23372c"/><g class="crown" style="animation-delay:-5.0s"><polygon points="0,-220 -45,-145 -25,-145 -62,-90 -37,-90 -83,-25 -55,-25 -98,35 98,35 55,-25 83,-25 37,-90 62,-90 25,-145 45,-145" fill="#315344"/><path d="M0-207V32L55-20M0-90L36-130M0-29L-51-64" fill="none" stroke="#82a782" opacity=".15" stroke-width="4"/></g></g><g transform="translate(1002 378) scale(0.9)"><path d="M-8 0H8V155H-8Z" fill="#23372c"/><g class="crown" style="animation-delay:-5.800000000000001s"><polygon points="0,-220 -45,-145 -25,-145 -62,-90 -37,-90 -83,-25 -55,-25 -98,35 98,35 55,-25 83,-25 37,-90 62,-90 25,-145 45,-145" fill="#315344"/><path d="M0-207V32L55-20M0-90L36-130M0-29L-51-64" fill="none" stroke="#82a782" opacity=".15" stroke-width="4"/></g></g><g transform="translate(30 426) scale(1.15)"><path d="M-8 0H8V155H-8Z" fill="#23372c"/><g class="crown" style="animation-delay:-2.0s"><polygon points="0,-220 -45,-145 -25,-145 -62,-90 -37,-90 -83,-25 -55,-25 -98,35 98,35 55,-25 83,-25 37,-90 62,-90 25,-145 45,-145" fill="#466d4c"/><path d="M0-207V32L55-20M0-90L36-130M0-29L-51-64" fill="none" stroke="#82a782" opacity=".15" stroke-width="4"/></g></g><g transform="translate(197 426) scale(1.15)"><path d="M-8 0H8V155H-8Z" fill="#23372c"/><g class="crown" style="animation-delay:-2.8s"><polygon points="0,-220 -45,-145 -25,-145 -62,-90 -37,-90 -83,-25 -55,-25 -98,35 98,35 55,-25 83,-25 37,-90 62,-90 25,-145 45,-145" fill="#466d4c"/><path d="M0-207V32L55-20M0-90L36-130M0-29L-51-64" fill="none" stroke="#82a782" opacity=".15" stroke-width="4"/></g></g><g transform="translate(364 426) scale(1.15)"><path d="M-8 0H8V155H-8Z" fill="#23372c"/><g class="crown" style="animation-delay:-3.6s"><polygon points="0,-220 -45,-145 -25,-145 -62,-90 -37,-90 -83,-25 -55,-25 -98,35 98,35 55,-25 83,-25 37,-90 62,-90 25,-145 45,-145" fill="#466d4c"/><path d="M0-207V32L55-20M0-90L36-130M0-29L-51-64" fill="none" stroke="#82a782" opacity=".15" stroke-width="4"/></g></g><g transform="translate(531 426) scale(1.15)"><path d="M-8 0H8V155H-8Z" fill="#23372c"/><g class="crown" style="animation-delay:-4.4s"><polygon points="0,-220 -45,-145 -25,-145 -62,-90 -37,-90 -83,-25 -55,-25 -98,35 98,35 55,-25 83,-25 37,-90 62,-90 25,-145 45,-145" fill="#466d4c"/><path d="M0-207V32L55-20M0-90L36-130M0-29L-51-64" fill="none" stroke="#82a782" opacity=".15" stroke-width="4"/></g></g><g transform="translate(698 426) scale(1.15)"><path d="M-8 0H8V155H-8Z" fill="#23372c"/><g class="crown" style="animation-delay:-5.2s"><polygon points="0,-220 -45,-145 -25,-145 -62,-90 -37,-90 -83,-25 -55,-25 -98,35 98,35 55,-25 83,-25 37,-90 62,-90 25,-145 45,-145" fill="#466d4c"/><path d="M0-207V32L55-20M0-90L36-130M0-29L-51-64" fill="none" stroke="#82a782" opacity=".15" stroke-width="4"/></g></g><g transform="translate(865 426) scale(1.15)"><path d="M-8 0H8V155H-8Z" fill="#23372c"/><g class="crown" style="animation-delay:-6.0s"><polygon points="0,-220 -45,-145 -25,-145 -62,-90 -37,-90 -83,-25 -55,-25 -98,35 98,35 55,-25 83,-25 37,-90 62,-90 25,-145 45,-145" fill="#466d4c"/><path d="M0-207V32L55-20M0-90L36-130M0-29L-51-64" fill="none" stroke="#82a782" opacity=".15" stroke-width="4"/></g></g><g transform="translate(1032 426) scale(1.15)"><path d="M-8 0H8V155H-8Z" fill="#23372c"/><g class="crown" style="animation-delay:-6.800000000000001s"><polygon points="0,-220 -45,-145 -25,-145 -62,-90 -37,-90 -83,-25 -55,-25 -98,35 98,35 55,-25 83,-25 37,-90 62,-90 25,-145 45,-145" fill="#466d4c"/><path d="M0-207V32L55-20M0-90L36-130M0-29L-51-64" fill="none" stroke="#82a782" opacity=".15" stroke-width="4"/></g></g><path d="M0 480Q200 440 370 498T960 462V540H0Z" fill="#182f29"/><circle class="mote" cx="366" cy="170" r="1.5" fill="#d9e7ad" style="animation-delay:-0.0s"/><circle class="mote" cx="748" cy="214" r="1.5" fill="#d9e7ad" style="animation-delay:-0.7s"/><circle class="mote" cx="766" cy="233" r="2" fill="#d9e7ad" style="animation-delay:-1.4s"/><circle class="mote" cx="653" cy="245" r="1.5" fill="#d9e7ad" style="animation-delay:-2.0999999999999996s"/><circle class="mote" cx="558" cy="315" r="1.5" fill="#d9e7ad" style="animation-delay:-2.8s"/><circle class="mote" cx="115" cy="357" r="2.4" fill="#d9e7ad" style="animation-delay:-3.5s"/><circle class="mote" cx="458" cy="265" r="2" fill="#d9e7ad" style="animation-delay:-4.199999999999999s"/><circle class="mote" cx="498" cy="435" r="2" fill="#d9e7ad" style="animation-delay:-4.8999999999999995s"/><circle class="mote" cx="836" cy="337" r="1.5" fill="#d9e7ad" style="animation-delay:-5.6s"/><circle class="mote" cx="207" cy="320" r="2.4" fill="#d9e7ad" style="animation-delay:-6.3s"/><circle class="mote" cx="427" cy="436" r="1.5" fill="#d9e7ad" style="animation-delay:-7.0s"/><circle class="mote" cx="806" cy="433" r="1.5" fill="#d9e7ad" style="animation-delay:-7.699999999999999s"/><circle class="mote" cx="100" cy="186" r="2.4" fill="#d9e7ad" style="animation-delay:-8.399999999999999s"/><circle class="mote" cx="626" cy="447" r="1.5" fill="#d9e7ad" style="animation-delay:-9.1s"/><circle class="mote" cx="511" cy="431" r="2.4" fill="#d9e7ad" style="animation-delay:-9.799999999999999s"/><circle class="mote" cx="675" cy="203" r="1.5" fill="#d9e7ad" style="animation-delay:-10.5s"/><circle class="mote" cx="365" cy="385" r="2" fill="#d9e7ad" style="animation-delay:-11.2s"/><circle class="mote" cx="513" cy="442" r="2.4" fill="#d9e7ad" style="animation-delay:-11.899999999999999s"/></svg>